%TF.GenerationSoftware,KiCad,Pcbnew,7.0.6*%
%TF.CreationDate,2023-08-09T01:09:07+05:30*%
%TF.ProjectId,arduinotask,61726475-696e-46f7-9461-736b2e6b6963,rev?*%
%TF.SameCoordinates,Original*%
%TF.FileFunction,Legend,Top*%
%TF.FilePolarity,Positive*%
%FSLAX46Y46*%
G04 Gerber Fmt 4.6, Leading zero omitted, Abs format (unit mm)*
G04 Created by KiCad (PCBNEW 7.0.6) date 2023-08-09 01:09:07*
%MOMM*%
%LPD*%
G01*
G04 APERTURE LIST*
%ADD10C,0.150000*%
%ADD11C,0.120000*%
%ADD12C,0.127000*%
%ADD13C,0.200000*%
%ADD14C,0.400000*%
G04 APERTURE END LIST*
D10*
X58289580Y-54716666D02*
X58337200Y-54764285D01*
X58337200Y-54764285D02*
X58384819Y-54907142D01*
X58384819Y-54907142D02*
X58384819Y-55002380D01*
X58384819Y-55002380D02*
X58337200Y-55145237D01*
X58337200Y-55145237D02*
X58241961Y-55240475D01*
X58241961Y-55240475D02*
X58146723Y-55288094D01*
X58146723Y-55288094D02*
X57956247Y-55335713D01*
X57956247Y-55335713D02*
X57813390Y-55335713D01*
X57813390Y-55335713D02*
X57622914Y-55288094D01*
X57622914Y-55288094D02*
X57527676Y-55240475D01*
X57527676Y-55240475D02*
X57432438Y-55145237D01*
X57432438Y-55145237D02*
X57384819Y-55002380D01*
X57384819Y-55002380D02*
X57384819Y-54907142D01*
X57384819Y-54907142D02*
X57432438Y-54764285D01*
X57432438Y-54764285D02*
X57480057Y-54716666D01*
X57480057Y-54335713D02*
X57432438Y-54288094D01*
X57432438Y-54288094D02*
X57384819Y-54192856D01*
X57384819Y-54192856D02*
X57384819Y-53954761D01*
X57384819Y-53954761D02*
X57432438Y-53859523D01*
X57432438Y-53859523D02*
X57480057Y-53811904D01*
X57480057Y-53811904D02*
X57575295Y-53764285D01*
X57575295Y-53764285D02*
X57670533Y-53764285D01*
X57670533Y-53764285D02*
X57813390Y-53811904D01*
X57813390Y-53811904D02*
X58384819Y-54383332D01*
X58384819Y-54383332D02*
X58384819Y-53764285D01*
X33273955Y-54180978D02*
X33303989Y-54090873D01*
X33303989Y-54090873D02*
X33303989Y-53940698D01*
X33303989Y-53940698D02*
X33273955Y-53880628D01*
X33273955Y-53880628D02*
X33243920Y-53850593D01*
X33243920Y-53850593D02*
X33183850Y-53820558D01*
X33183850Y-53820558D02*
X33123780Y-53820558D01*
X33123780Y-53820558D02*
X33063710Y-53850593D01*
X33063710Y-53850593D02*
X33033675Y-53880628D01*
X33033675Y-53880628D02*
X33003640Y-53940698D01*
X33003640Y-53940698D02*
X32973605Y-54060838D01*
X32973605Y-54060838D02*
X32943570Y-54120908D01*
X32943570Y-54120908D02*
X32913535Y-54150943D01*
X32913535Y-54150943D02*
X32853465Y-54180978D01*
X32853465Y-54180978D02*
X32793395Y-54180978D01*
X32793395Y-54180978D02*
X32733325Y-54150943D01*
X32733325Y-54150943D02*
X32703290Y-54120908D01*
X32703290Y-54120908D02*
X32673255Y-54060838D01*
X32673255Y-54060838D02*
X32673255Y-53910663D01*
X32673255Y-53910663D02*
X32703290Y-53820558D01*
X32673255Y-53610314D02*
X33303989Y-53460139D01*
X33303989Y-53460139D02*
X32853465Y-53339999D01*
X32853465Y-53339999D02*
X33303989Y-53219859D01*
X33303989Y-53219859D02*
X32673255Y-53069685D01*
X33303989Y-52499020D02*
X33303989Y-52859440D01*
X33303989Y-52679230D02*
X32673255Y-52679230D01*
X32673255Y-52679230D02*
X32763360Y-52739300D01*
X32763360Y-52739300D02*
X32823430Y-52799370D01*
X32823430Y-52799370D02*
X32853465Y-52859440D01*
X37764819Y-76961904D02*
X38574342Y-76961904D01*
X38574342Y-76961904D02*
X38669580Y-76914285D01*
X38669580Y-76914285D02*
X38717200Y-76866666D01*
X38717200Y-76866666D02*
X38764819Y-76771428D01*
X38764819Y-76771428D02*
X38764819Y-76580952D01*
X38764819Y-76580952D02*
X38717200Y-76485714D01*
X38717200Y-76485714D02*
X38669580Y-76438095D01*
X38669580Y-76438095D02*
X38574342Y-76390476D01*
X38574342Y-76390476D02*
X37764819Y-76390476D01*
X37860057Y-75961904D02*
X37812438Y-75914285D01*
X37812438Y-75914285D02*
X37764819Y-75819047D01*
X37764819Y-75819047D02*
X37764819Y-75580952D01*
X37764819Y-75580952D02*
X37812438Y-75485714D01*
X37812438Y-75485714D02*
X37860057Y-75438095D01*
X37860057Y-75438095D02*
X37955295Y-75390476D01*
X37955295Y-75390476D02*
X38050533Y-75390476D01*
X38050533Y-75390476D02*
X38193390Y-75438095D01*
X38193390Y-75438095D02*
X38764819Y-76009523D01*
X38764819Y-76009523D02*
X38764819Y-75390476D01*
X44713628Y-58986190D02*
X45189819Y-58986190D01*
X44189819Y-59319523D02*
X44713628Y-58986190D01*
X44713628Y-58986190D02*
X44189819Y-58652857D01*
X45189819Y-57795714D02*
X45189819Y-58367142D01*
X45189819Y-58081428D02*
X44189819Y-58081428D01*
X44189819Y-58081428D02*
X44332676Y-58176666D01*
X44332676Y-58176666D02*
X44427914Y-58271904D01*
X44427914Y-58271904D02*
X44475533Y-58367142D01*
X33273955Y-69420978D02*
X33303989Y-69330873D01*
X33303989Y-69330873D02*
X33303989Y-69180698D01*
X33303989Y-69180698D02*
X33273955Y-69120628D01*
X33273955Y-69120628D02*
X33243920Y-69090593D01*
X33243920Y-69090593D02*
X33183850Y-69060558D01*
X33183850Y-69060558D02*
X33123780Y-69060558D01*
X33123780Y-69060558D02*
X33063710Y-69090593D01*
X33063710Y-69090593D02*
X33033675Y-69120628D01*
X33033675Y-69120628D02*
X33003640Y-69180698D01*
X33003640Y-69180698D02*
X32973605Y-69300838D01*
X32973605Y-69300838D02*
X32943570Y-69360908D01*
X32943570Y-69360908D02*
X32913535Y-69390943D01*
X32913535Y-69390943D02*
X32853465Y-69420978D01*
X32853465Y-69420978D02*
X32793395Y-69420978D01*
X32793395Y-69420978D02*
X32733325Y-69390943D01*
X32733325Y-69390943D02*
X32703290Y-69360908D01*
X32703290Y-69360908D02*
X32673255Y-69300838D01*
X32673255Y-69300838D02*
X32673255Y-69150663D01*
X32673255Y-69150663D02*
X32703290Y-69060558D01*
X32673255Y-68850314D02*
X33303989Y-68700139D01*
X33303989Y-68700139D02*
X32853465Y-68579999D01*
X32853465Y-68579999D02*
X33303989Y-68459859D01*
X33303989Y-68459859D02*
X32673255Y-68309685D01*
X32733325Y-68099440D02*
X32703290Y-68069405D01*
X32703290Y-68069405D02*
X32673255Y-68009335D01*
X32673255Y-68009335D02*
X32673255Y-67859160D01*
X32673255Y-67859160D02*
X32703290Y-67799090D01*
X32703290Y-67799090D02*
X32733325Y-67769055D01*
X32733325Y-67769055D02*
X32793395Y-67739020D01*
X32793395Y-67739020D02*
X32853465Y-67739020D01*
X32853465Y-67739020D02*
X32943570Y-67769055D01*
X32943570Y-67769055D02*
X33303989Y-68129475D01*
X33303989Y-68129475D02*
X33303989Y-67739020D01*
X47875154Y-73564806D02*
X47541564Y-73088248D01*
X47303285Y-73564806D02*
X47303285Y-72564034D01*
X47303285Y-72564034D02*
X47684531Y-72564034D01*
X47684531Y-72564034D02*
X47779843Y-72611690D01*
X47779843Y-72611690D02*
X47827498Y-72659346D01*
X47827498Y-72659346D02*
X47875154Y-72754658D01*
X47875154Y-72754658D02*
X47875154Y-72897625D01*
X47875154Y-72897625D02*
X47827498Y-72992937D01*
X47827498Y-72992937D02*
X47779843Y-73040592D01*
X47779843Y-73040592D02*
X47684531Y-73088248D01*
X47684531Y-73088248D02*
X47303285Y-73088248D01*
X48208745Y-72564034D02*
X48828270Y-72564034D01*
X48828270Y-72564034D02*
X48494680Y-72945281D01*
X48494680Y-72945281D02*
X48637647Y-72945281D01*
X48637647Y-72945281D02*
X48732959Y-72992937D01*
X48732959Y-72992937D02*
X48780615Y-73040592D01*
X48780615Y-73040592D02*
X48828270Y-73135904D01*
X48828270Y-73135904D02*
X48828270Y-73374183D01*
X48828270Y-73374183D02*
X48780615Y-73469495D01*
X48780615Y-73469495D02*
X48732959Y-73517151D01*
X48732959Y-73517151D02*
X48637647Y-73564806D01*
X48637647Y-73564806D02*
X48351712Y-73564806D01*
X48351712Y-73564806D02*
X48256401Y-73517151D01*
X48256401Y-73517151D02*
X48208745Y-73469495D01*
X55731254Y-46075546D02*
X55397664Y-45598988D01*
X55159385Y-46075546D02*
X55159385Y-45074774D01*
X55159385Y-45074774D02*
X55540631Y-45074774D01*
X55540631Y-45074774D02*
X55635943Y-45122430D01*
X55635943Y-45122430D02*
X55683598Y-45170086D01*
X55683598Y-45170086D02*
X55731254Y-45265398D01*
X55731254Y-45265398D02*
X55731254Y-45408365D01*
X55731254Y-45408365D02*
X55683598Y-45503677D01*
X55683598Y-45503677D02*
X55635943Y-45551332D01*
X55635943Y-45551332D02*
X55540631Y-45598988D01*
X55540631Y-45598988D02*
X55159385Y-45598988D01*
X56112501Y-45170086D02*
X56160157Y-45122430D01*
X56160157Y-45122430D02*
X56255468Y-45074774D01*
X56255468Y-45074774D02*
X56493747Y-45074774D01*
X56493747Y-45074774D02*
X56589059Y-45122430D01*
X56589059Y-45122430D02*
X56636715Y-45170086D01*
X56636715Y-45170086D02*
X56684370Y-45265398D01*
X56684370Y-45265398D02*
X56684370Y-45360709D01*
X56684370Y-45360709D02*
X56636715Y-45503677D01*
X56636715Y-45503677D02*
X56064845Y-46075546D01*
X56064845Y-46075546D02*
X56684370Y-46075546D01*
X55731254Y-40995546D02*
X55397664Y-40518988D01*
X55159385Y-40995546D02*
X55159385Y-39994774D01*
X55159385Y-39994774D02*
X55540631Y-39994774D01*
X55540631Y-39994774D02*
X55635943Y-40042430D01*
X55635943Y-40042430D02*
X55683598Y-40090086D01*
X55683598Y-40090086D02*
X55731254Y-40185398D01*
X55731254Y-40185398D02*
X55731254Y-40328365D01*
X55731254Y-40328365D02*
X55683598Y-40423677D01*
X55683598Y-40423677D02*
X55635943Y-40471332D01*
X55635943Y-40471332D02*
X55540631Y-40518988D01*
X55540631Y-40518988D02*
X55159385Y-40518988D01*
X56684370Y-40995546D02*
X56112501Y-40995546D01*
X56398436Y-40995546D02*
X56398436Y-39994774D01*
X56398436Y-39994774D02*
X56303124Y-40137742D01*
X56303124Y-40137742D02*
X56207812Y-40233053D01*
X56207812Y-40233053D02*
X56112501Y-40280709D01*
X36793006Y-35865290D02*
X36793006Y-36580020D01*
X36793006Y-36580020D02*
X36745357Y-36722966D01*
X36745357Y-36722966D02*
X36650060Y-36818264D01*
X36650060Y-36818264D02*
X36507114Y-36865912D01*
X36507114Y-36865912D02*
X36411817Y-36865912D01*
X37793628Y-36865912D02*
X37221844Y-36865912D01*
X37507736Y-36865912D02*
X37507736Y-35865290D01*
X37507736Y-35865290D02*
X37412439Y-36008236D01*
X37412439Y-36008236D02*
X37317142Y-36103534D01*
X37317142Y-36103534D02*
X37221844Y-36151182D01*
X69088095Y-32684819D02*
X69088095Y-33494342D01*
X69088095Y-33494342D02*
X69135714Y-33589580D01*
X69135714Y-33589580D02*
X69183333Y-33637200D01*
X69183333Y-33637200D02*
X69278571Y-33684819D01*
X69278571Y-33684819D02*
X69469047Y-33684819D01*
X69469047Y-33684819D02*
X69564285Y-33637200D01*
X69564285Y-33637200D02*
X69611904Y-33589580D01*
X69611904Y-33589580D02*
X69659523Y-33494342D01*
X69659523Y-33494342D02*
X69659523Y-32684819D01*
X70659523Y-33684819D02*
X70088095Y-33684819D01*
X70373809Y-33684819D02*
X70373809Y-32684819D01*
X70373809Y-32684819D02*
X70278571Y-32827676D01*
X70278571Y-32827676D02*
X70183333Y-32922914D01*
X70183333Y-32922914D02*
X70088095Y-32970533D01*
X38631905Y-58454819D02*
X38631905Y-57454819D01*
X38631905Y-57454819D02*
X38870000Y-57454819D01*
X38870000Y-57454819D02*
X39012857Y-57502438D01*
X39012857Y-57502438D02*
X39108095Y-57597676D01*
X39108095Y-57597676D02*
X39155714Y-57692914D01*
X39155714Y-57692914D02*
X39203333Y-57883390D01*
X39203333Y-57883390D02*
X39203333Y-58026247D01*
X39203333Y-58026247D02*
X39155714Y-58216723D01*
X39155714Y-58216723D02*
X39108095Y-58311961D01*
X39108095Y-58311961D02*
X39012857Y-58407200D01*
X39012857Y-58407200D02*
X38870000Y-58454819D01*
X38870000Y-58454819D02*
X38631905Y-58454819D01*
X40155714Y-58454819D02*
X39584286Y-58454819D01*
X39870000Y-58454819D02*
X39870000Y-57454819D01*
X39870000Y-57454819D02*
X39774762Y-57597676D01*
X39774762Y-57597676D02*
X39679524Y-57692914D01*
X39679524Y-57692914D02*
X39584286Y-57740533D01*
X54189580Y-59836666D02*
X54237200Y-59884285D01*
X54237200Y-59884285D02*
X54284819Y-60027142D01*
X54284819Y-60027142D02*
X54284819Y-60122380D01*
X54284819Y-60122380D02*
X54237200Y-60265237D01*
X54237200Y-60265237D02*
X54141961Y-60360475D01*
X54141961Y-60360475D02*
X54046723Y-60408094D01*
X54046723Y-60408094D02*
X53856247Y-60455713D01*
X53856247Y-60455713D02*
X53713390Y-60455713D01*
X53713390Y-60455713D02*
X53522914Y-60408094D01*
X53522914Y-60408094D02*
X53427676Y-60360475D01*
X53427676Y-60360475D02*
X53332438Y-60265237D01*
X53332438Y-60265237D02*
X53284819Y-60122380D01*
X53284819Y-60122380D02*
X53284819Y-60027142D01*
X53284819Y-60027142D02*
X53332438Y-59884285D01*
X53332438Y-59884285D02*
X53380057Y-59836666D01*
X54284819Y-58884285D02*
X54284819Y-59455713D01*
X54284819Y-59169999D02*
X53284819Y-59169999D01*
X53284819Y-59169999D02*
X53427676Y-59265237D01*
X53427676Y-59265237D02*
X53522914Y-59360475D01*
X53522914Y-59360475D02*
X53570533Y-59455713D01*
D11*
%TO.C,C2*%
X54960000Y-53921000D02*
X54960000Y-55179000D01*
X56800000Y-53921000D02*
X56800000Y-55179000D01*
D12*
%TO.C,SW1*%
X36348500Y-50345000D02*
X40348500Y-50345000D01*
X41343500Y-52340000D02*
X41343500Y-54340000D01*
X40348500Y-56335000D02*
X36348500Y-56335000D01*
X35353500Y-52340000D02*
X35353500Y-54340000D01*
X40103500Y-53340000D02*
G75*
G03*
X40103500Y-53340000I-1755000J0D01*
G01*
D13*
X33876500Y-51090000D02*
G75*
G03*
X33876500Y-51090000I-100000J0D01*
G01*
D11*
%TO.C,U2*%
X40640000Y-77530000D02*
X39310000Y-77530000D01*
X41910000Y-77530000D02*
X80070000Y-77530000D01*
X39310000Y-77530000D02*
X39310000Y-76200000D01*
X80070000Y-77530000D02*
X80070000Y-74870000D01*
X41910000Y-77530000D02*
X41910000Y-74870000D01*
X41910000Y-74870000D02*
X80070000Y-74870000D01*
%TO.C,Y1*%
X50785000Y-61635000D02*
X50785000Y-55385000D01*
X45735000Y-61635000D02*
X45735000Y-55385000D01*
X45735000Y-61635000D02*
G75*
G03*
X50785000Y-61635000I2525000J0D01*
G01*
X50785000Y-55385000D02*
G75*
G03*
X45735000Y-55385000I-2525000J0D01*
G01*
D12*
%TO.C,SW2*%
X36348500Y-65585000D02*
X40348500Y-65585000D01*
X41343500Y-67580000D02*
X41343500Y-69580000D01*
X40348500Y-71575000D02*
X36348500Y-71575000D01*
X35353500Y-67580000D02*
X35353500Y-69580000D01*
X40103500Y-68580000D02*
G75*
G03*
X40103500Y-68580000I-1755000J0D01*
G01*
D13*
X33876500Y-66330000D02*
G75*
G03*
X33876500Y-66330000I-100000J0D01*
G01*
D12*
%TO.C,R3*%
X46310000Y-70470000D02*
X45510000Y-70470000D01*
X46890000Y-69545000D02*
X46310000Y-69545000D01*
X46890000Y-71395000D02*
X46310000Y-71395000D01*
X46310000Y-70470000D02*
X46310000Y-69545000D01*
X46310000Y-71395000D02*
X46310000Y-70470000D01*
X49810000Y-70470000D02*
X50610000Y-70470000D01*
X49810000Y-69545000D02*
X49230000Y-69545000D01*
X49810000Y-70470000D02*
X49810000Y-69545000D01*
X49810000Y-71395000D02*
X49810000Y-70470000D01*
X49230000Y-71395000D02*
X49810000Y-71395000D01*
%TO.C,R2*%
X54710000Y-47335000D02*
X54130000Y-47335000D01*
X54130000Y-47335000D02*
X54130000Y-48260000D01*
X54130000Y-48260000D02*
X54130000Y-49185000D01*
X54130000Y-49185000D02*
X54710000Y-49185000D01*
X54130000Y-48260000D02*
X53330000Y-48260000D01*
X57630000Y-47335000D02*
X57630000Y-48260000D01*
X57630000Y-48260000D02*
X57630000Y-49185000D01*
X57050000Y-47335000D02*
X57630000Y-47335000D01*
X57050000Y-49185000D02*
X57630000Y-49185000D01*
X57630000Y-48260000D02*
X58430000Y-48260000D01*
%TO.C,R1*%
X54710000Y-42255000D02*
X54130000Y-42255000D01*
X54130000Y-42255000D02*
X54130000Y-43180000D01*
X54130000Y-43180000D02*
X54130000Y-44105000D01*
X54130000Y-44105000D02*
X54710000Y-44105000D01*
X54130000Y-43180000D02*
X53330000Y-43180000D01*
X57630000Y-42255000D02*
X57630000Y-43180000D01*
X57630000Y-43180000D02*
X57630000Y-44105000D01*
X57050000Y-42255000D02*
X57630000Y-42255000D01*
X57050000Y-44105000D02*
X57630000Y-44105000D01*
X57630000Y-43180000D02*
X58430000Y-43180000D01*
D14*
%TO.C,J1*%
X32840000Y-43180000D02*
G75*
G03*
X32840000Y-43180000I-200000J0D01*
G01*
D12*
X33940000Y-40630000D02*
X33940000Y-38680000D01*
X40190000Y-38680000D02*
X48340000Y-38680000D01*
X33940000Y-47680000D02*
X33940000Y-45830000D01*
X33940000Y-38680000D02*
X35090000Y-38680000D01*
X48340000Y-47680000D02*
X33940000Y-47680000D01*
X48340000Y-38680000D02*
X48340000Y-47680000D01*
D11*
%TO.C,U1*%
X72500000Y-34230000D02*
X70850000Y-34230000D01*
X72500000Y-69910000D02*
X72500000Y-34230000D01*
X68850000Y-34230000D02*
X67200000Y-34230000D01*
X67200000Y-34230000D02*
X67200000Y-69910000D01*
X67200000Y-69910000D02*
X72500000Y-69910000D01*
X68850000Y-34230000D02*
G75*
G03*
X70850000Y-34230000I1000000J0D01*
G01*
%TO.C,D1*%
X37810000Y-59724000D02*
X37810000Y-59880000D01*
X37810000Y-62040000D02*
X37810000Y-62196000D01*
X40411129Y-59880164D02*
G75*
G03*
X38329040Y-59880001I-1041129J-1079836D01*
G01*
X37810001Y-62195515D02*
G75*
G03*
X41042334Y-62038608I1559999J1235515D01*
G01*
X38329040Y-62039999D02*
G75*
G03*
X40411129Y-62039836I1040960J1079999D01*
G01*
X41042334Y-59881392D02*
G75*
G03*
X37810001Y-59724485I-1672334J-1078608D01*
G01*
%TO.C,C1*%
X56800000Y-60299000D02*
X56800000Y-59041000D01*
X54960000Y-60299000D02*
X54960000Y-59041000D01*
%TD*%
M02*
