%TF.GenerationSoftware,KiCad,Pcbnew,7.0.6*%
%TF.CreationDate,2023-08-09T01:09:07+05:30*%
%TF.ProjectId,arduinotask,61726475-696e-46f7-9461-736b2e6b6963,rev?*%
%TF.SameCoordinates,Original*%
%TF.FileFunction,Soldermask,Bot*%
%TF.FilePolarity,Negative*%
%FSLAX46Y46*%
G04 Gerber Fmt 4.6, Leading zero omitted, Abs format (unit mm)*
G04 Created by KiCad (PCBNEW 7.0.6) date 2023-08-09 01:09:07*
%MOMM*%
%LPD*%
G01*
G04 APERTURE LIST*
%ADD10C,1.600000*%
%ADD11C,1.498000*%
%ADD12R,1.498000X1.498000*%
%ADD13O,1.700000X1.700000*%
%ADD14R,1.700000X1.700000*%
%ADD15C,1.500000*%
%ADD16C,1.258000*%
%ADD17O,4.500000X2.250000*%
%ADD18O,2.250000X4.500000*%
%ADD19O,2.500000X5.000000*%
%ADD20R,1.600000X1.600000*%
%ADD21O,1.600000X1.600000*%
%ADD22R,1.800000X1.800000*%
%ADD23C,1.800000*%
G04 APERTURE END LIST*
D10*
%TO.C,C2*%
X55880000Y-53300000D03*
X55880000Y-55800000D03*
%TD*%
D11*
%TO.C,SW1*%
X35098500Y-55590000D03*
D12*
X35098500Y-51090000D03*
D11*
X41598500Y-55590000D03*
X41598500Y-51090000D03*
%TD*%
D13*
%TO.C,U2*%
X78740000Y-76200000D03*
X76200000Y-76200000D03*
X73660000Y-76200000D03*
X71120000Y-76200000D03*
X68580000Y-76200000D03*
X66040000Y-76200000D03*
X63500000Y-76200000D03*
X60960000Y-76200000D03*
X58420000Y-76200000D03*
X55880000Y-76200000D03*
X53340000Y-76200000D03*
X50800000Y-76200000D03*
X48260000Y-76200000D03*
X45720000Y-76200000D03*
X43180000Y-76200000D03*
D14*
X40640000Y-76200000D03*
%TD*%
D15*
%TO.C,Y1*%
X48260000Y-60960000D03*
X48260000Y-56060000D03*
%TD*%
D11*
%TO.C,SW2*%
X35098500Y-70830000D03*
D12*
X35098500Y-66330000D03*
D11*
X41598500Y-70830000D03*
X41598500Y-66330000D03*
%TD*%
D16*
%TO.C,R3*%
X44560000Y-70470000D03*
X51560000Y-70470000D03*
%TD*%
%TO.C,R2*%
X52380000Y-48260000D03*
X59380000Y-48260000D03*
%TD*%
%TO.C,R1*%
X52380000Y-43180000D03*
X59380000Y-43180000D03*
%TD*%
D17*
%TO.C,J1*%
X37640000Y-38480000D03*
D18*
X40640000Y-43180000D03*
D19*
X34640000Y-43180000D03*
%TD*%
D20*
%TO.C,U1*%
X66040000Y-35560000D03*
D21*
X66040000Y-38100000D03*
X66040000Y-40640000D03*
X66040000Y-43180000D03*
X66040000Y-45720000D03*
X66040000Y-48260000D03*
X66040000Y-50800000D03*
X66040000Y-53340000D03*
X66040000Y-55880000D03*
X66040000Y-58420000D03*
X66040000Y-60960000D03*
X66040000Y-63500000D03*
X66040000Y-66040000D03*
X66040000Y-68580000D03*
X73660000Y-68580000D03*
X73660000Y-66040000D03*
X73660000Y-63500000D03*
X73660000Y-60960000D03*
X73660000Y-58420000D03*
X73660000Y-55880000D03*
X73660000Y-53340000D03*
X73660000Y-50800000D03*
X73660000Y-48260000D03*
X73660000Y-45720000D03*
X73660000Y-43180000D03*
X73660000Y-40640000D03*
X73660000Y-38100000D03*
X73660000Y-35560000D03*
%TD*%
D22*
%TO.C,D1*%
X38100000Y-60960000D03*
D23*
X40640000Y-60960000D03*
%TD*%
D10*
%TO.C,C1*%
X55880000Y-60920000D03*
X55880000Y-58420000D03*
%TD*%
M02*
